<?xml version="1.0" encoding="utf-8"?>
<!-- Generator: Adobe Illustrator 24.0.2, SVG Export Plug-In . SVG Version: 6.00 Build 0)  -->
<svg version="1.1" id="图层_1" xmlns="http://www.w3.org/2000/svg" xmlns:xlink="http://www.w3.org/1999/xlink" x="0px" y="0px"
	 viewBox="0 0 4096 4096" style="enable-background:new 0 0 4096 4096;" xml:space="preserve">
<g>
	<path d="M1081.1,2277.4c-1.3-1-2.8-1.9-4.2-2.7c-9-5.3-16.5-12.3-23.7-19.8c-7.8-8.1-11.4-17.4-11.3-28.9c0.3-42,0.1-84-0.1-126
		c0-7.7,1.7-14.3,6.9-20.2c6.6-7.5,9.8-16.3,9.6-26.6c-0.2-9.7-3.2-18.4-8.1-26.5c-6.6-11-8.5-22.7-8.4-35.4
		c0.3-34.6-3.8-76,0.3-136c0.8-12.1,0.3-24.3,0.8-36.5c0.6-16.3,1.3-25-3-36c-3.3-8.5-8.4-15-10-17c-3.7-4.6-5.2-5.2-12.6-12.1
		c-7.7-7.2-21.7-21-31.9-27c-5.3-3.1-9.9-2.7-14.9,0.5c-7.9,5.2-14.3,12-21.3,18.1c-28.9,25.5-50.7,57.4-77.2,85
		c-3.5,3.6-2.8,6.4,1,8.9c2.5,1.7,5,3.3,7.6,4.9c14.9,9.7,28.5,20.8,40.9,33.5c7.9,8,11.7,17.1,11.4,28.6c-0.6,26.3-0.7,52.7-0.1,79
		c0.4,17.3-1.5,33.8-10,49.3c-1,1.9-4.1,7.3-5.1,15.1c-0.3,2.8-1.2,10.2,2.1,18.4c2.6,6.6,5.4,7.4,9.7,17.4c1.7,4,2.6,7,2.8,7.6
		c2.1,7,2.5,12.7,2.7,16.1c0.6,10.5,0,18.1-0.4,26.3c-0.8,17.5,0.5,15.7-0.4,28.5c-1,15.3-1.5,22.9-5.1,31.3
		c-1.5,3.3-2.4,7.5-19.2,23.3c-11.3,10.6-22.6,21.3-33.8,31.9c-7.6,7.2-17.2,14.9-27.3,12.3c-4.9-1.3-8.8-4.8-12.5-8.2
		c-6.4-6-12.8-12.1-18.9-18.4c-5.2-5.3-10.5-10.9-13.3-17.8c-2.7-6.8-2.8-14.4-2.8-21.8c0,0,0-0.9,0-2.7c0-25.3,0.4-37.9,0-48.9
		c-0.2-5.8-0.5-11.7,0-17.5c0.6-6.8-0.2-15.2,2.6-21.5c1.8-4,4.2-6.1,7.3-9.1c2-2,9.2-9.8,14.4-17c6-8.2,9.1-18.5,8.7-28.7
		c-0.3-8.1-3.6-13-8-19.6c-3.9-5.7-8.4-10.8-12.4-16.4c-5.8-8.1-7.2-21.7-8.9-31.4c-6.2-34.2-5.1-68.8-3.6-103.3
		c1-22.6,2.1-45.1,1.5-67.6c-0.4-15-1.7-30.2-6.4-44.5s-13.1-27.7-25.5-36.2c-5.5-3.8-12.2-6.6-18.8-5.6
		c-7.5,1.1-13.4,6.5-18.9,11.8c-30.5,29.6-60.2,60.1-88.8,91.5c-0.6,0.6-1.2,1.3-1.3,2.1c-0.3,1.7,1.5,3,3,3.8
		c17.3,10,33.1,22.4,47,36.7c5.3,5.4,10.3,11.3,13,18.4c3,7.7,3,16.2,3,24.5c-0.1,17.1-0.1,34.3-0.2,51.4c0,12.7-0.2,25.9-5.2,37.6
		c-4.2,9.8-11.6,17.8-17.8,26.5c-6.2,8.7-11.5,18.9-10.4,29.6c1.2,12.4,10.3,20.8,17.7,29.9c6.2,7.5,15,14.1,15.9,24.6
		c0.5,5.7,0,11.8-0.1,17.5c-0.7,46-0.4,92-0.6,138c-0.1,12.5,3.2,23.6,11.2,33.3c9.7,11.9,19.3,23.8,28.9,35.7
		c8,10,15.2,21.7,25.8,29.1c4,2.8,8.1,3.1,11.9-0.1c4.6-3.8,9.3-7.6,13.5-11.9c24.5-24.7,40.8-56.3,67.9-78.6
		c3.5-2.9,10.1-8.8,18.6-8.5c5,0.2,9,2.5,11.2,3.7c7.2,4.1,10.3,10.1,15,16.3c6.6,8.7,14.8,16.6,22.1,24.8
		c14.4,16.2,28.8,32.4,43.2,48.6c4.9,5.5,10.8,11.4,18.2,11.1c5-0.2,8.2-4,17.7-14.1c14.6-15.5,29.1-30.9,43.6-46.4
		c6.7-7.2,13-16.4,20.9-22.2c3.2-2.4,7.2-4.9,7.2-8.2C1085.3,2281.7,1084.1,2279.7,1081.1,2277.4z"/>
	<path d="M1527.6,2283.6c1.4-1.1,5.9-4.6,6.2-9.6c0.1-2.7-1.6-5.5-5.2-10.1c-10.3-13.5-19.2-28.1-28.8-42
		c-7.1-10.2-10.3-21.3-10.1-33.8c0.5-22.3,0.5-44.7,0.2-67c-0.1-6,0.9-11.4,3.2-16.2c1.5-3.2,2.9-4.3,7.3-9.7
		c4.6-5.7,4.1-5.6,11.2-15.1c12.7-16.9,12.4-14.6,13.7-17.8c6-14.3-0.7-29-1.4-30.6c-1.5-3.2-2.2-3.5-9.7-12.7
		c-13-16-20.2-24.1-21.1-31.1c-1.1-7.6,0.1-14.9,0-22.4c-0.1-7.1-0.3-14.3-0.4-21.4c-0.1-15.1-0.2-30.2-0.4-45.3
		c-0.4-29.9-1-59.8-2-89.8c-0.5-15.2-5.4-28.7-14.2-40.9c-9.8-13.7-21.5-25.4-34.9-35.6c-18.7-14.2-22.6-14.6-41.4-1
		c-8.5,6.1-17,12-25.7,17.9c-6.1,4.2-24.8,17.7-62.9,43.8c-10.5,7.2-22,15-33.6,29.3c-4.2,5.2-7.3,9.8-9.2,12.9
		c-0.9-5.1-1.8-8.4-2.1-11.7c-1.3-14.7-5.4-28.8-10.1-42.7c-8.5-25.1-27.6-41.1-47.9-56c-3.8-2.8-7.3-2.3-10.8,0.8
		c-5.7,5.2-11,10.7-14.6,17.6c-15.1,28.7-37,51.1-64,68.7c-7.8,5.1-15.3,10.7-21.8,17.4c-5.4,5.5-3.7,10.5,3.9,11.9
		c5.3,1,9.6,0,14.7,2.2c4.4,1.9,8.5,4.7,12.1,7.9c8.8,7.5,17.6,16.1,22.6,26.7c4.8,10.3,6.6,20.8,6.5,32c-0.1,19.8,0,32,0,51.1
		c-0.1,16.4-0.4,24.7-0.3,36.9c0.2,29-1.8,58.5,0.5,87.4c0.3,3.3,1.1,7.3,4.2,8.5c1.6,0.6,3.4,0.2,5-0.4c4-1.4,7.5-4,11-6.5
		c16.7-12.3,32.7-25.4,48-39.4c13.6-12.4,28.8-25.2,36.1-42.5c6.1-14.3,5.8-29.8,6.3-45c0.5-16.3-1.7-32.6-2.6-48.9
		c-1-19.4,0-39.7,9.3-56.8c7.8-14.5,20.9-25.5,34.9-34.1c11.2-6.9,23.5-12.7,36.6-13.9c13.1-1.3,27.2,2.4,36.2,12
		c9.7,10.3,12.2,25.2,13.3,39.3c2.4,31.2,0.1,62.5,1.4,93.7c0.6,13.7,1.8,28.1-2.5,41.4c-2.8,8.5-8.4,17-12.8,24.8
		c-7.9,13.9-9.9,14.9-13.3,23.1c-2.4,5.9-4.1,10-4.4,15.9c-0.6,11.3,3.4,22.4,12.3,29.3c10.9,8.4,17.1,21.7,19.9,34.9
		c3.2,15.2,2.3,31,2.3,46.5c0,18.3,1,37.2-5.6,54.2c-7.4,19.1-23.3,33.4-38.6,47c-7.7,6.8-15.4,13.6-23.1,20.4
		c-1.7,1.4-3.6,3-5.8,2.7c-1.1-0.2-2-0.8-2.9-1.4c-41-27.8-45.7-53.1-45.7-53.1c-1.4-3.5-5.6-15.1-7.1-30.4
		c0-38.8-0.6-77.5-2.8-116.2c-0.1-1.7-0.3-3.6-1.4-4.8c-2.4-2.6-6.7-0.9-9.6,1c-27,17.5-51.1,39-76.7,58.5
		c-6.6,5.1-13.7,10.3-17.1,17.9c-2.5,5.4-2.8,11.6-3.1,17.6c-0.7,17.5-1.4,35.6,0.3,53.1c0.9,9.6,1.6,15.6,4.8,22.9
		c2.2,4.9,5.5,8.5,15.8,21c5.9,7.3,13,13.4,19.3,20.4c10.6,11.9,21,24,32,35.4c7.1,7.3,14.9,13.8,22.6,20.5
		c7.1,6.2,13.7,12.8,21.8,17.7c6,3.6,11.7,3.7,17.7-0.4c8.1-5.4,15.2-11.9,22.1-18.7c18-17.9,35.8-35.8,53.9-53.6
		c7.2-7.1,9.1-7.1,14.6,1.1c11.7,17.4,25.2,33.6,35.9,51.7c3.2,5.5,6.7,10.8,11.4,15.1c5.1,4.7,9.5,7,13.9,7
		c6.6,0,11.6-4.8,13.9-7.1c14.9-14.9,28.8-33.4,34.6-40.8C1514.5,2299.1,1525.1,2285.6,1527.6,2283.6z"/>
	<path d="M1804.9,2394.8c-2.7-3.5-9.4-14.2-22.8-35.6c-14.3-22.9-21.6-34.4-23.9-40c-2.8-6.7-8.2-21.1-10.7-40.1
		c-1.6-12.4-1-21.8-1.1-27c-0.3-51.3-0.5-102.6-0.7-154c0-3.3,0.2-6.7,0.1-10c-0.1-8.1,2.6-14.9,8.7-20.4c6.4-5.6,10.9-10.4,11.6-11
		c15.3-12.7,18.2-13.4,18-16.1c-0.3-4.3-8.1-4.2-19-12.8c-1.7-1.3-9.2-7.1-13.8-15.5c-4.3-7.9-6-16.8-5.9-27.5
		c0.8-95.3,0.5-190.6,0.6-286c0-15-0.2-30,0.1-45c0.1-8.5-2.6-15.7-8.2-21.9c-3.8-4.2-7.8-8.2-11.8-12.3
		c-16.4-16.6-33.8-32.2-49.1-49.8c-9.1-10.4-10.5-10-20,0.5c-24.2,26.7-49.5,52.2-77.2,75.3c-10,8.3-9.8,12.3,2,17.4
		c15.4,6.7,28.7,16.8,43,25.3c8.4,5,12,11.9,11.9,22.2c-0.1,28.7-0.1,57.5-0.1,86.2c0,34.1-0.1,68.1-0.1,102.2c0,17.5,0,35-0.1,52.5
		c0,15.1,2.6,32.6-1.9,47.2c-3.8,12.1-13.3,21-21.3,30.3c-7,8.2-17.1,18.6-19.3,29.4c-2.2,10.4,2.5,18.9,5,23.4
		c1.5,2.8,5.9,10.8,14.7,16.3c5.1,3.1,10.2,6.4,15.2,9.7c5.4,3.6,7.7,8.5,7.7,15.2c-0.2,32.4-0.4,64.8-0.3,97.3
		c0.1,16.9,1.9,34.6,0.7,51.4c-1.2,16-9.5,31.6-17.3,45.3c-9.8,17.4-21,34-33.3,49.7c-4.7,6-27.4,35.8-35,25.9
		c-6.8-8.9-8.9-19.9-11.3-30.5c-1.6-7-2.6-18.7-11.3-20.4c-3.8-0.7-7.6,1.1-10.7,3.5c-14.2,10.9-16.3,31-22.3,47.9
		c-1.1,3-2.2,6.1-2.9,9.1c-0.3,1.2-0.7,6.4,1.4,12.9c0.8,2.4,2.7,7.2,12.4,17.7c5.7,6.1,9.8,10.6,16.7,15.6
		c5.7,4.1,12.9,9.3,23.3,11c13.7,2.3,20.8-6.9,27.8-17.3c5.8-8.7,12.8-16.6,18.5-25.4c12.1-18.9,18.1-28.3,20.6-32.6
		c10.5-18.4,17.1-33.2,23.3-47.4c4.4-10,9.5-22.3,14.8-36.6c9.2,12.4,17.5,22.9,24.3,31.3c4.2,5.1,9.1,11,19,22.8
		c13.3,15.9,22.7,26.8,25.2,29.8c11.5,13.4,17.3,20.2,18.3,21.2c16.7,16.2,33,23.8,42.8,28.3c10.8,4.9,19,7.3,28,7.9
		c5.7,0.4,17.8,1.3,20.3-4c1.6-3.3-1.1-7.4-7.8-17.2C1812.2,2405.1,1807.2,2397.8,1804.9,2394.8z"/>
	<path d="M3438,2253.8c-17.3-10-33.1-22.4-47-36.7c-5.3-5.4-10.3-11.3-13.1-18.4c-3-7.7-3-16.2-3-24.5c0.1-17.1,0.1-34.3,0.2-51.4
		c0.1-12.7,0.2-25.9,5.2-37.6c4.2-9.8,11.6-17.8,17.8-26.5s11.5-18.9,10.4-29.6c-1.2-12.4-10.3-20.8-17.7-29.9
		c-6.1-7.5-15-14.1-15.9-24.6c-0.5-5.7,0-11.8,0.1-17.5c0.7-46,0.4-92,0.6-138c0.1-12.5-3.2-23.6-11.2-33.3
		c-9.7-11.8-19.3-23.8-28.9-35.7c-8-10-15.2-21.7-25.8-29.1c-4-2.8-8.1-3.1-11.9,0.1c-4.6,3.8-9.3,7.6-13.5,11.9
		c-24.4,24.7-40.9,56.3-67.9,78.6c-3.5,2.9-10.1,8.8-18.6,8.5c-5-0.2-9-2.5-11.2-3.7c-7.2-4.1-10.3-10.1-14.9-16.3
		c-6.6-8.7-14.8-16.7-22.1-24.8c-14.4-16.2-28.8-32.4-43.2-48.6c-4.9-5.5-10.8-11.4-18.2-11.1c-5,0.2-8.2,4-17.7,14.1
		c-14.6,15.5-29.1,30.9-43.6,46.4c-6.7,7.2-13,16.4-20.9,22.2c-3.2,2.3-7.2,4.9-7.2,8.2c0,1.9,1.2,3.8,4.2,6.1
		c1.3,1,2.8,1.9,4.2,2.7c9,5.3,16.5,12.3,23.7,19.8c7.8,8.1,11.4,17.4,11.3,28.8c-0.3,42-0.1,84,0.1,126c0,7.7-1.7,14.3-6.9,20.2
		c-6.6,7.5-9.8,16.3-9.6,26.6c0.2,9.7,3.2,18.4,8.1,26.5c6.6,11,8.5,22.7,8.4,35.4c-0.3,34.6,3.8,76-0.4,136
		c-0.8,12.1-0.4,24.3-0.8,36.5c-0.6,16.3-1.3,25,3,36c3.4,8.5,8.4,15,10,17c3.7,4.6,5.2,5.2,12.6,12.1c7.7,7.2,21.7,21,31.9,27
		c5.3,3.1,9.9,2.7,14.9-0.5c7.9-5.1,14.3-12,21.3-18.1c28.9-25.5,50.7-57.4,77.2-85c3.5-3.6,2.8-6.4-0.9-8.9c-2.5-1.7-5-3.3-7.6-4.9
		c-14.9-9.7-28.5-20.8-40.9-33.5c-7.9-8-11.7-17.1-11.4-28.6c0.6-26.3,0.7-52.7,0.1-79c-0.4-17.3,1.5-33.8,10-49.3
		c1.1-1.9,4.1-7.3,5.1-15.1c0.3-2.8,1.1-10.2-2.1-18.4c-2.6-6.6-5.4-7.4-9.7-17.4c-1.7-4-2.6-7-2.8-7.6c-2.1-7-2.5-12.7-2.7-16.1
		c-0.6-10.5,0-18.1,0.4-26.3c0.8-17.5-0.4-15.7,0.4-28.5c1-15.3,1.5-22.9,5.1-31.3c1.5-3.3,2.4-7.5,19.2-23.3
		c11.3-10.7,22.6-21.3,33.9-31.9c7.6-7.2,17.2-14.9,27.3-12.3c4.9,1.3,8.8,4.8,12.5,8.2c6.4,6,12.8,12.2,18.9,18.4
		c5.2,5.3,10.5,10.9,13.3,17.8c2.7,6.8,2.8,14.4,2.8,21.8c0,0,0,0.9,0,2.7c0,25.3-0.4,37.9,0,48.9c0.2,5.8,0.5,11.7,0,17.5
		c-0.6,6.8,0.2,15.2-2.6,21.5c-1.8,4-4.2,6.1-7.3,9.1c-2,2-9.2,9.8-14.4,17c-6,8.2-9.1,18.5-8.7,28.7c0.3,8.1,3.6,13,8,19.6
		c3.9,5.7,8.4,10.8,12.4,16.4c5.8,8.1,7.2,21.7,8.9,31.4c6.2,34.2,5.1,68.8,3.6,103.4c-1,22.6-2.1,45.1-1.4,67.6
		c0.4,15,1.7,30.2,6.4,44.5s13.1,27.7,25.5,36.2c5.5,3.8,12.2,6.6,18.8,5.6c7.5-1.1,13.4-6.5,18.9-11.8
		c30.6-29.6,60.2-60.1,88.9-91.5c0.6-0.6,1.1-1.3,1.3-2.1C3441.2,2256,3439.5,2254.7,3438,2253.8z"/>
	<path d="M2983.4,2248.4c-5.3-1-9.6,0-14.7-2.2c-4.4-1.9-8.5-4.7-12.1-7.9c-8.8-7.5-17.6-16.1-22.6-26.7c-4.8-10.3-6.6-20.8-6.5-32
		c0.1-19.8,0-32,0-51.1c0.1-16.4,0.4-24.7,0.3-36.9c-0.2-29,1.8-58.5-0.5-87.4c-0.3-3.3-1.1-7.3-4.2-8.5c-1.6-0.6-3.4-0.2-5,0.4
		c-4,1.4-7.5,3.9-11,6.5c-16.7,12.3-32.7,25.4-48,39.4c-13.6,12.4-28.8,25.2-36.1,42.5c-6.1,14.3-5.8,29.8-6.3,45
		c-0.5,16.4,1.7,32.6,2.6,48.9c1,19.4,0,39.7-9.3,56.8c-7.8,14.5-20.9,25.5-34.9,34.1c-11.2,6.9-23.5,12.6-36.6,13.9
		c-13.1,1.3-27.2-2.4-36.2-12c-9.7-10.3-12.2-25.2-13.3-39.3c-2.4-31.1-0.1-62.5-1.4-93.7c-0.6-13.7-1.8-28.1,2.5-41.4
		c2.8-8.5,8.4-17,12.8-24.8c7.9-13.9,9.9-14.9,13.3-23.1c2.4-5.9,4.1-10,4.4-15.9c0.6-11.3-3.4-22.4-12.3-29.3
		c-10.9-8.4-17.1-21.7-19.9-34.9c-3.2-15.2-2.3-31-2.3-46.5c0-18.3-1-37.2,5.6-54.2c7.4-19.1,23.3-33.4,38.6-47
		c7.7-6.8,15.4-13.6,23.1-20.4c1.6-1.4,3.6-3,5.8-2.7c1.1,0.2,2,0.8,2.9,1.4c41,27.8,45.7,53.1,45.7,53.1c1.4,3.5,5.6,15.1,7.1,30.4
		c0,38.8,0.6,77.5,2.8,116.2c0.1,1.7,0.3,3.6,1.4,4.8c2.4,2.6,6.6,0.9,9.6-1c27-17.5,51.1-39,76.7-58.5c6.6-5.1,13.6-10.3,17.1-17.9
		c2.5-5.4,2.9-11.6,3.1-17.6c0.7-17.5,1.4-35.6-0.3-53.1c-0.9-9.6-1.6-15.7-4.8-22.9c-2.2-4.9-5.5-8.5-15.8-21
		c-5.9-7.3-13-13.4-19.3-20.3c-10.6-11.8-21-24-32-35.4c-7.1-7.3-14.9-13.8-22.6-20.5c-7.1-6.2-13.7-12.8-21.8-17.7
		c-6-3.6-11.7-3.7-17.7,0.4c-8.1,5.4-15.2,11.9-22.1,18.7c-18,17.9-35.8,35.8-53.9,53.6c-7.2,7.1-9.1,7.1-14.6-1.1
		c-11.7-17.4-25.2-33.6-35.9-51.7c-3.2-5.5-6.6-10.8-11.4-15.1c-5.1-4.7-9.5-7-13.9-7c-6.6,0-11.6,4.8-13.9,7.1
		c-14.9,14.9-28.8,33.3-34.6,40.8c-21.2,27.1-31.8,40.7-34.2,42.6c-1.4,1.1-5.9,4.6-6.2,9.6c-0.1,2.7,1.6,5.5,5.2,10.1
		c10.3,13.5,19.1,28.1,28.8,42c7.1,10.2,10.4,21.3,10.1,33.8c-0.5,22.3-0.5,44.7-0.2,67c0.1,6-0.9,11.4-3.2,16.2
		c-1.5,3.2-2.9,4.3-7.3,9.7c-4.6,5.7-4.1,5.7-11.2,15.2c-12.7,16.9-12.4,14.6-13.7,17.8c-6,14.3,0.7,29,1.4,30.5
		c1.5,3.2,2.2,3.5,9.7,12.7c13,16,20.1,24.1,21.1,31.1c1.1,7.6-0.1,14.9,0,22.4c0.1,7.1,0.4,14.3,0.4,21.4
		c0.1,15.1,0.2,30.2,0.4,45.4c0.4,29.9,1,59.8,2,89.8c0.5,15.2,5.4,28.7,14.1,40.9c9.8,13.7,21.5,25.4,34.9,35.6
		c18.7,14.2,22.6,14.6,41.4,1c8.5-6.1,17-12,25.7-17.9c6.1-4.2,24.8-17.7,62.9-43.8c10.5-7.2,22-15,33.6-29.3
		c4.2-5.2,7.3-9.8,9.2-12.9c0.9,5.1,1.8,8.4,2.1,11.6c1.3,14.7,5.4,28.8,10.1,42.6c8.5,25.1,27.6,41.1,47.9,56
		c3.8,2.8,7.4,2.3,10.8-0.8c5.7-5.2,11-10.7,14.6-17.6c15.1-28.7,37-51.1,64-68.7c7.8-5.1,15.3-10.7,21.8-17.4
		C2992.6,2254.8,2990.9,2249.8,2983.4,2248.4z"/>
	<path d="M2566,1744.9c14.2-10.9,16.3-31,22.3-47.9c1.1-3,2.2-6.1,2.9-9.1c0.3-1.2,0.7-6.3-1.4-12.9c-0.8-2.4-2.7-7.2-12.4-17.7
		c-5.7-6.1-9.8-10.6-16.7-15.6c-5.7-4.2-12.9-9.3-23.3-11c-13.7-2.3-20.9,6.9-27.8,17.3c-5.8,8.7-12.8,16.6-18.5,25.4
		c-12.1,18.8-18.1,28.3-20.6,32.6c-10.5,18.3-17.1,33.2-23.3,47.4c-4.4,10-9.5,22.3-14.8,36.6c-9.2-12.4-17.5-22.9-24.3-31.3
		c-4.2-5.1-9.1-11-19-22.8c-13.3-15.9-22.6-26.8-25.2-29.8c-11.5-13.4-17.3-20.2-18.3-21.2c-16.7-16.2-33-23.8-42.9-28.3
		c-10.8-4.9-19-7.3-28-7.9c-5.7-0.4-17.8-1.3-20.4,4c-1.6,3.3,1.1,7.4,7.8,17.2c10,14.7,15,22.1,17.2,25c2.7,3.5,9.4,14.2,22.8,35.6
		c14.4,22.9,21.6,34.4,23.9,40c2.8,6.7,8.2,21.1,10.7,40.1c1.6,12.4,1,21.8,1.1,27c0.3,51.3,0.5,102.7,0.6,154c0,3.3-0.2,6.7-0.1,10
		c0.1,8.1-2.6,14.9-8.7,20.4c-6.4,5.7-10.9,10.4-11.6,11c-15.3,12.7-18.2,13.4-18,16.1c0.4,4.3,8.1,4.2,19,12.8
		c1.7,1.3,9.2,7.1,13.8,15.5c4.3,7.9,6,16.9,5.9,27.5c-0.8,95.3-0.5,190.6-0.6,286c0,15,0.2,30-0.1,45c-0.1,8.5,2.6,15.7,8.2,21.9
		c3.8,4.2,7.8,8.2,11.8,12.3c16.4,16.6,33.8,32.2,49.1,49.8c9.1,10.4,10.5,10,20-0.5c24.2-26.7,49.5-52.2,77.2-75.3
		c10-8.3,9.8-12.3-2-17.4c-15.4-6.7-28.7-16.8-43-25.3c-8.4-5-12-11.9-11.9-22.2c0.1-28.7,0.1-57.5,0.1-86.2
		c0-34.1,0.1-68.1,0.1-102.2c0-17.5,0-35,0.1-52.5c0-15.1-2.6-32.6,1.9-47.1c3.8-12.1,13.3-21,21.3-30.4c7-8.2,17.1-18.6,19.3-29.4
		c2.1-10.3-2.5-18.9-5-23.4c-1.5-2.8-5.9-10.8-14.7-16.3c-5.1-3.1-10.1-6.4-15.1-9.7c-5.4-3.6-7.7-8.5-7.7-15.2
		c0.2-32.4,0.5-64.8,0.3-97.3c-0.1-16.9-1.9-34.6-0.7-51.4c1.2-16,9.5-31.6,17.3-45.3c9.8-17.4,21-34,33.3-49.7
		c4.7-6,27.4-35.8,35-25.9c6.8,8.8,8.9,19.9,11.3,30.5c1.6,7,2.6,18.7,11.3,20.4C2559.1,1749.1,2562.9,1747.3,2566,1744.9z"/>
	<path d="M2253.7,1745.4c-7-22.9-19.4-43.1-32.3-62.9c-7.8-11.9-21-12.9-32.1-3.9c-2.8,2.3-5.3,5.1-7.8,7.7
		c-1.9,1.9-2.7,3.9-2.5,5.9c-0.2,1.9,0.5,3.8,2.1,5.8c3.9,5.1,8.4,9.4,13.1,13.7c8.8,8.1,17.7,16.2,26.2,24.7
		c5.8,5.8,10,12.4,10.2,20.5c0,1.7-0.2,3.5-0.7,5.4c-1.8,7.9-5.9,13.1-10.4,18.3c-4.1,4.8-8.3,9.7-15.6,13.8
		c-11.7,6.6-22.9,6.4-27.8,6.3c-9.6-0.2-16.9-2.8-21.5-4.4c-6.8-2.4-11.5-5.1-13-5.9c-8.3-4.8-13.3-10-17.4-14.1
		c-8.1-8.1-16.8-15.5-25.2-23.3c-36.8-34.3-24.3-21.3-29.4-26.2c-0.1-0.1-1.6-1.5-3.9-3.2c-7.2-5.4-8.6-5.4-15.6,0.2
		c-2.6,2.1-5.2,4.3-7.5,6.6c-6.7,6.5-18.3,15.7-36.6,29.3c-10.1,7.5-8.5,5.8-20.8,14.8c-6.9,5-20,14.7-35.5,27.3
		c-16.1,13.1-25.6,20.8-37.8,33c-5.8,5.8-17,17.4-26.5,33.3c-2.8,4.6-5,9-6.9,14.4c-3.7,10.8-3.8,19.9-3.8,23.9c0,0.7,0,1.2,0,1.7
		c0.1,12.1,0.1,27.1,0.1,39.5c0,10.8,0,19.5,0,22.2c-0.1,11.3-0.6,33.7-0.7,52.9c0,0.1,0,0.2,0,0.3c0,0.3,0,0.5,0,0.8
		c0,4.7,0.1,9.5,0.1,14.2c0.1,3.7,0.2,7.1,0.3,10c0.4,7.6,2.3,15.9,5.2,22.9c6.8,15.9,18.4,24.6,22,27.3c9.2,6.8,17.9,9.5,23.3,11.2
		c21.8,6.7,45.5,6.7,65.2-6.1c10.9-7.1,19.6-17.2,31-23.3c19.5-10.5,47.7-5.2,58,14.4c4.5,8.5,5.3,18.4,5.7,28
		c0.5,9.8,0.7,19.7,0.7,29.5c-0.1,10.1-0.4,20.2-1,30.2c-2.1,35.6-8.3,72.8-30.2,100.9c-2.4,3.1-5.5,6.3-9.4,6.6
		c-4.8,0.3-8.6-3.8-11.6-7.5c-14.7-18.3-53.4-43.7-81.1-54.6c-17.6-6.9-29.1-7.3-31.9-7.4c-18.2-0.4-36.6,5.5-45.4,14.1
		c-13.8,13.5-27.6,30.4-35.2,48.3c-4,9.4-5.9,17.9-7.4,24.8c-0.9,4.3-1.7,7.6-2.2,12c-0.5,4.4-0.7,8.4-0.7,11.9
		c0,5.9,0.5,10.6,1.3,13.3c7,22.9,19.4,43.1,32.3,62.9c7.8,11.9,21,12.9,32.1,3.9c2.8-2.3,5.3-5.1,7.8-7.7c1.9-1.9,2.7-3.9,2.5-5.9
		c0.2-1.9-0.5-3.8-2.1-5.8c-3.8-5.1-8.4-9.4-13.1-13.7c-8.8-8.1-17.7-16.2-26.2-24.7c-5.8-5.9-10-12.4-10.2-20.5
		c0-1.7,0.2-3.5,0.7-5.4c1.8-7.9,5.9-13.1,10.4-18.3c4.1-4.8,8.3-9.7,15.6-13.8c11.7-6.6,22.9-6.4,27.8-6.3
		c9.6,0.2,16.9,2.8,21.5,4.4c6.8,2.4,11.5,5.1,13,5.9c8.3,4.8,13.3,10,17.4,14.1c8.1,8.1,16.8,15.5,25.2,23.4
		c36.8,34.3,24.3,21.3,29.4,26.2c0.1,0.1,1.6,1.5,3.9,3.2c7.2,5.4,8.6,5.4,15.7-0.2c2.6-2.1,5.2-4.3,7.5-6.6
		c6.7-6.5,18.2-15.7,36.6-29.3c10.1-7.5,8.5-5.9,20.8-14.8c6.9-5,20-14.7,35.5-27.4c16.1-13.1,25.6-20.8,37.8-33
		c5.9-5.8,17-17.4,26.5-33.3c2.8-4.6,5-9,6.9-14.4c3.7-10.8,3.8-19.9,3.8-23.9c0-0.6,0-1.2,0-1.7c-0.1-12.1-0.1-27.1-0.1-39.5
		c0-10.8,0-19.5,0-22.2c0.1-11.3,0.6-33.7,0.7-52.9c0-0.1,0-0.2,0-0.3c0-0.3,0-0.5,0-0.8c0-4.7-0.1-9.5-0.1-14.2
		c-0.1-3.7-0.2-7.1-0.3-10c-0.4-7.6-2.3-15.9-5.2-22.9c-6.8-15.9-18.4-24.7-22-27.3c-9.2-6.8-17.9-9.5-23.3-11.2
		c-21.8-6.7-45.5-6.7-65.2,6.1c-10.9,7.1-19.6,17.2-31,23.3c-19.5,10.5-47.7,5.2-58-14.4c-4.5-8.5-5.3-18.4-5.7-28
		c-0.5-9.8-0.7-19.7-0.7-29.5c0.1-10.1,0.4-20.2,1-30.2c2.1-35.6,8.3-72.8,30.2-100.9c2.4-3.1,5.5-6.3,9.4-6.6
		c4.8-0.3,8.6,3.8,11.6,7.5c14.7,18.3,53.4,43.7,81.1,54.6c17.6,6.9,29.1,7.3,31.9,7.4c18.2,0.4,36.6-5.5,45.4-14.1
		c13.8-13.5,27.6-30.4,35.1-48.3c4-9.4,5.9-17.9,7.4-24.8c0.9-4.3,1.7-7.6,2.2-12c0.5-4.4,0.7-8.4,0.7-11.9
		C2255,1752.7,2254.5,1748.1,2253.7,1745.4z"/>
</g>
</svg>
