<?xml version="1.0" encoding="utf-8"?>
<!-- Generator: Adobe Illustrator 24.0.2, SVG Export Plug-In . SVG Version: 6.00 Build 0)  -->
<svg version="1.1" id="图层_1" xmlns="http://www.w3.org/2000/svg" xmlns:xlink="http://www.w3.org/1999/xlink" x="0px" y="0px"
	 viewBox="0 0 1024 1024" style="enable-background:new 0 0 1024 1024;" xml:space="preserve">
<path d="M381.21,532.7c-3.83,6.05-7.66,12.11-11.49,18.16"/>
<path d="M727.11,748.83c1.41-1.12,5.93-4.59,6.17-9.55c0.13-2.69-1.64-5.47-5.18-10.09c-10.34-13.52-19.15-28.07-28.83-42.04
	c-7.06-10.19-10.35-21.25-10.05-33.8c0.52-22.32,0.5-44.67,0.16-66.99c-0.09-6.02,0.9-11.37,3.23-16.2c1.52-3.16,2.9-4.27,7.25-9.7
	c4.58-5.71,4.1-5.65,11.23-15.15c12.73-16.95,12.38-14.63,13.71-17.79c6.04-14.31-0.68-28.99-1.41-30.55
	c-1.53-3.22-2.22-3.46-9.74-12.73c-12.99-16.03-20.15-24.07-21.14-31.13c-1.05-7.55,0.12-14.86,0.01-22.39
	c-0.1-7.07-0.35-14.26-0.38-21.38c-0.06-15.12-0.19-30.23-0.39-45.35c-0.39-29.92-1.04-59.84-2.01-89.76
	c-0.49-15.16-5.43-28.68-14.15-40.92c-9.75-13.69-21.54-25.39-34.88-35.55c-18.66-14.23-22.59-14.57-41.37-1.04
	c-8.46,6.1-17.04,12.02-25.67,17.89c-6.13,4.17-24.79,17.73-62.87,43.83c-10.54,7.23-22.03,15.02-33.62,29.26
	c-4.23,5.19-7.29,9.8-9.24,12.93c-0.94-5.14-1.8-8.37-2.08-11.65c-1.25-14.73-5.41-28.75-10.12-42.65
	c-8.5-25.06-27.55-41.07-47.87-56.01c-3.83-2.81-7.35-2.34-10.79,0.81c-5.68,5.21-11.02,10.74-14.63,17.6
	c-15.08,28.74-36.98,51.06-63.99,68.71c-7.81,5.1-15.31,10.74-21.83,17.45c-5.37,5.53-3.67,10.48,3.88,11.87
	c5.28,0.97,9.55-0.02,14.7,2.19c4.44,1.9,8.46,4.72,12.12,7.86c8.77,7.53,17.59,16.09,22.56,26.66c4.82,10.26,6.58,20.84,6.53,31.96
	c-0.1,19.79,0.04,31.96-0.02,51.13c-0.05,16.39-0.4,24.67-0.3,36.87c0.23,29.03-1.83,58.51,0.5,87.44c0.27,3.33,1.09,7.33,4.23,8.46
	c1.61,0.58,3.4,0.19,5.01-0.39c4.01-1.44,7.53-3.96,10.97-6.48c16.68-12.26,32.7-25.41,47.97-39.38
	c13.55-12.39,28.75-25.24,36.07-42.54c6.06-14.33,5.78-29.83,6.28-45.04c0.53-16.35-1.68-32.61-2.55-48.9
	c-1.03-19.4,0.04-39.68,9.26-56.78c7.81-14.49,20.88-25.5,34.88-34.14c11.21-6.92,23.5-12.65,36.61-13.93
	c13.11-1.29,27.18,2.41,36.23,11.99c9.69,10.26,12.2,25.24,13.29,39.31c2.41,31.15,0.07,62.48,1.41,93.69
	c0.59,13.71,1.83,28.12-2.49,41.39c-2.77,8.51-8.4,16.99-12.83,24.81c-7.89,13.94-9.95,14.86-13.34,23.11
	c-2.43,5.92-4.11,10.01-4.45,15.94c-0.64,11.34,3.42,22.39,12.33,29.32c10.86,8.44,17.14,21.7,19.9,34.92
	c3.18,15.23,2.33,30.96,2.29,46.51c-0.04,18.28,0.98,37.16-5.59,54.22c-7.36,19.12-23.27,33.44-38.64,46.99
	c-7.7,6.79-15.39,13.58-23.09,20.36c-1.65,1.45-3.61,3.01-5.78,2.66c-1.06-0.17-2-0.78-2.89-1.38
	c-41.04-27.79-45.71-53.13-45.71-53.13c-1.36-3.51-5.62-15.11-7.09-30.45c0-38.75-0.63-77.46-2.76-116.16
	c-0.09-1.7-0.25-3.55-1.39-4.82c-2.36-2.62-6.65-0.89-9.6,1.03c-26.99,17.5-51.09,39.04-76.69,58.52
	c-6.64,5.05-13.65,10.29-17.1,17.88c-2.48,5.45-2.85,11.59-3.08,17.58c-0.67,17.54-1.41,35.64,0.27,53.13
	c0.93,9.63,1.56,15.65,4.8,22.94c2.19,4.94,5.51,8.51,15.78,21.03c5.95,7.25,13.02,13.39,19.27,20.35
	c10.63,11.85,20.97,23.96,32.02,35.43c7.06,7.33,14.91,13.81,22.58,20.48c7.1,6.16,13.71,12.83,21.83,17.68
	c6.03,3.6,11.68,3.68,17.71-0.38c8.08-5.44,15.22-11.89,22.08-18.71c17.97-17.86,35.84-35.82,53.89-53.59
	c7.21-7.1,9.13-7.13,14.61,1.06c11.66,17.45,25.23,33.58,35.88,51.73c3.21,5.46,6.65,10.8,11.37,15.13
	c5.12,4.7,9.53,7.03,13.93,7.03c6.62-0.01,11.6-4.77,13.94-7.1c14.94-14.88,28.82-33.35,34.64-40.8
	C714.1,764.31,724.69,750.76,727.11,748.83z"/>
</svg>
