<?xml version="1.0" encoding="utf-8"?>
<!-- Generator: Adobe Illustrator 24.0.2, SVG Export Plug-In . SVG Version: 6.00 Build 0)  -->
<svg version="1.1" id="图层_1" xmlns="http://www.w3.org/2000/svg" xmlns:xlink="http://www.w3.org/1999/xlink" x="0px" y="0px"
	 viewBox="0 0 1024 1024" style="enable-background:new 0 0 1024 1024;" xml:space="preserve">
<path d="M730.21,725.12c-17.27-9.96-33.13-22.37-46.96-36.73c-5.25-5.45-10.31-11.34-13.05-18.4c-2.99-7.71-3-16.21-2.96-24.48
	c0.07-17.14,0.14-34.28,0.22-51.42c0.05-12.74,0.19-25.89,5.24-37.58c4.24-9.8,11.61-17.83,17.81-26.52s11.46-18.92,10.4-29.55
	c-1.23-12.43-10.25-20.82-17.7-29.92c-6.15-7.5-14.96-14.13-15.89-24.57c-0.5-5.69-0.01-11.81,0.08-17.53
	c0.73-45.99,0.39-91.99,0.61-137.99c0.06-12.47-3.16-23.55-11.19-33.33c-9.72-11.85-19.32-23.79-28.91-35.74
	c-8-9.96-15.19-21.69-25.83-29.07c-4.02-2.79-8.08-3.11-11.93,0.11c-4.6,3.84-9.28,7.63-13.49,11.88
	c-24.45,24.67-40.85,56.29-67.88,78.57c-3.49,2.88-10.07,8.82-18.56,8.46c-4.97-0.21-8.99-2.46-11.17-3.71
	c-7.16-4.11-10.28-10.06-14.95-16.26c-6.58-8.74-14.81-16.65-22.09-24.83c-14.4-16.19-28.81-32.39-43.21-48.58
	c-4.89-5.49-10.82-11.45-18.16-11.12c-4.99,0.23-8.16,4.01-17.66,14.1c-14.55,15.46-29.09,30.92-43.6,46.43
	c-6.72,7.19-13.01,16.4-20.95,22.21c-3.21,2.35-7.16,4.86-7.18,8.16c-0.01,1.86,1.22,3.85,4.17,6.1c1.33,1.01,2.77,1.87,4.2,2.72
	c8.98,5.31,16.54,12.31,23.74,19.76c7.8,8.08,11.42,17.42,11.34,28.85c-0.28,42-0.12,84,0.05,126c0.03,7.67-1.73,14.32-6.92,20.21
	c-6.62,7.51-9.8,16.34-9.61,26.59c0.17,9.7,3.24,18.43,8.06,26.46c6.61,11.01,8.53,22.69,8.42,35.37c-0.3,34.59,3.8,75.99-0.35,136
	c-0.84,12.14-0.35,24.33-0.82,36.49c-0.63,16.33-1.33,25.02,3,36c3.35,8.49,8.38,14.99,10,17c3.7,4.6,5.21,5.24,12.6,12.1
	c7.72,7.17,21.72,21.01,31.87,27c5.27,3.11,9.93,2.73,14.89-0.51c7.87-5.15,14.27-11.97,21.27-18.13
	c28.91-25.47,50.69-57.37,77.19-85c3.49-3.64,2.76-6.38-0.95-8.95c-2.46-1.71-5.04-3.25-7.55-4.88
	c-14.87-9.66-28.47-20.84-40.94-33.47c-7.94-8.04-11.66-17.07-11.39-28.64c0.61-26.32,0.68-52.67,0.12-78.99
	c-0.37-17.33,1.51-33.81,10.02-49.26c1.05-1.91,4.14-7.35,5.07-15.08c0.33-2.76,1.15-10.24-2.07-18.42
	c-2.61-6.62-5.37-7.38-9.72-17.44c-1.72-3.98-2.64-6.98-2.84-7.63c-2.11-6.98-2.53-12.71-2.72-16.09
	c-0.58-10.46,0.01-18.12,0.37-26.32c0.78-17.54-0.45-15.73,0.37-28.54c0.98-15.27,1.47-22.91,5.13-31.29
	c1.46-3.34,2.38-7.46,19.19-23.32c11.28-10.65,22.56-21.3,33.85-31.95c7.6-7.18,17.21-14.92,27.34-12.29
	c4.86,1.26,8.78,4.77,12.46,8.2c6.43,6.01,12.75,12.15,18.93,18.42c5.24,5.31,10.52,10.9,13.27,17.83
	c2.72,6.84,2.75,14.41,2.75,21.77c0,0.01,0,0.91,0,2.7c-0.01,25.26-0.41,37.89-0.03,48.89c0.2,5.8,0.54,11.72,0.02,17.52
	c-0.61,6.8,0.19,15.21-2.6,21.52c-1.78,4-4.19,6.07-7.25,9.1c-1.99,1.97-9.16,9.79-14.43,17c-6.01,8.22-9.09,18.5-8.74,28.67
	c0.27,8.05,3.59,13.03,7.99,19.57c3.86,5.72,8.43,10.81,12.42,16.37c5.81,8.1,7.18,21.71,8.92,31.37
	c6.2,34.19,5.06,68.77,3.57,103.35c-0.98,22.55-2.1,45.11-1.45,67.56c0.43,15.03,1.7,30.21,6.4,44.5s13.11,27.74,25.54,36.21
	c5.54,3.78,12.19,6.57,18.82,5.63c7.47-1.06,13.44-6.54,18.87-11.79c30.55-29.56,60.19-60.07,88.85-91.46
	c0.56-0.61,1.15-1.28,1.27-2.1C733.42,727.25,731.7,725.98,730.21,725.12z"/>
</svg>
