<?xml version="1.0" encoding="utf-8"?>
<!-- Generator: Adobe Illustrator 24.0.2, SVG Export Plug-In . SVG Version: 6.00 Build 0)  -->
<svg version="1.1" id="图层_1" xmlns="http://www.w3.org/2000/svg" xmlns:xlink="http://www.w3.org/1999/xlink" x="0px" y="0px"
	 viewBox="0 0 1024 1024" style="enable-background:new 0 0 1024 1024;" xml:space="preserve">
<path d="M368.65,760.23"/>
<path d="M717.88,212.41c-7.03-22.86-19.4-43.09-32.34-62.86c-7.79-11.89-20.99-12.89-32.07-3.92c-2.83,2.29-5.25,5.1-7.81,7.72
	c-1.9,1.95-2.72,3.91-2.54,5.95c-0.16,1.86,0.54,3.78,2.08,5.8c3.85,5.08,8.4,9.44,13.06,13.74c8.81,8.13,17.74,16.16,26.16,24.7
	c5.77,5.85,9.98,12.42,10.17,20.47c-0.04,1.74-0.24,3.53-0.67,5.41c-1.81,7.87-5.94,13.05-10.45,18.28
	c-4.13,4.8-8.33,9.68-15.62,13.78c-11.66,6.56-22.89,6.42-27.8,6.3c-9.58-0.24-16.9-2.82-21.5-4.45
	c-6.75-2.38-11.51-5.08-12.97-5.93c-8.29-4.81-13.31-9.99-17.42-14.08c-8.11-8.09-16.83-15.54-25.2-23.35
	c-36.77-34.28-24.27-21.33-29.36-26.19c-0.12-0.12-1.64-1.52-3.86-3.17c-7.23-5.37-8.6-5.38-15.65,0.23
	c-2.61,2.07-5.15,4.25-7.54,6.56c-6.73,6.53-18.25,15.7-36.62,29.34c-10.07,7.48-8.54,5.85-20.83,14.8
	c-6.91,5.03-19.96,14.7-35.53,27.35c-16.11,13.09-25.59,20.8-37.81,32.99c-5.85,5.84-17.01,17.38-26.5,33.26
	c-2.76,4.61-5.02,8.99-6.88,14.42c-3.71,10.81-3.83,19.92-3.81,23.86c0,0.65,0,1.21,0,1.67c0.09,12.11,0.12,27.11,0.12,39.52
	c0,10.82-0.02,19.48-0.04,22.18c-0.06,11.32-0.63,33.66-0.67,52.94c0,0.1,0,0.19,0,0.29c0,0.26,0,0.53,0,0.79
	c0.03,4.74,0.07,9.48,0.1,14.22c0.07,3.73,0.18,7.14,0.34,10.04c0.42,7.55,2.27,15.91,5.24,22.9c6.76,15.89,18.4,24.65,22,27.3
	c9.2,6.75,17.9,9.51,23.33,11.18c21.78,6.7,45.52,6.68,65.18-6.07c10.87-7.05,19.6-17.2,31.01-23.34
	c19.52-10.51,47.71-5.24,58.01,14.38c4.46,8.5,5.26,18.38,5.74,27.97c0.48,9.83,0.71,19.67,0.68,29.51
	c-0.05,10.09-0.37,20.17-0.96,30.24c-2.08,35.61-8.28,72.79-30.22,100.91c-2.43,3.12-5.48,6.33-9.43,6.59
	c-4.79,0.31-8.59-3.78-11.59-7.52c-14.72-18.31-53.37-43.74-81.11-54.61c-17.61-6.91-29.09-7.33-31.94-7.4
	c-18.2-0.43-36.62,5.5-45.44,14.13c-13.84,13.53-27.55,30.41-35.15,48.29c-4.02,9.45-5.88,17.9-7.41,24.83
	c-0.95,4.32-1.67,7.56-2.16,11.98c-0.49,4.39-0.68,8.41-0.66,11.94c-0.03,5.95,0.53,10.59,1.35,13.26
	c7.03,22.86,19.4,43.09,32.34,62.86c7.79,11.89,20.99,12.89,32.07,3.92c2.83-2.29,5.25-5.1,7.81-7.72c1.9-1.95,2.72-3.91,2.54-5.95
	c0.16-1.86-0.54-3.78-2.08-5.8c-3.85-5.08-8.4-9.44-13.06-13.74c-8.81-8.13-17.74-16.16-26.16-24.7
	c-5.77-5.85-9.98-12.42-10.17-20.47c0.04-1.73,0.24-3.53,0.67-5.41c1.81-7.87,5.94-13.05,10.45-18.28
	c4.13-4.8,8.33-9.68,15.62-13.78c11.66-6.56,22.89-6.42,27.8-6.3c9.58,0.24,16.9,2.82,21.5,4.45c6.75,2.38,11.51,5.08,12.97,5.93
	c8.29,4.81,13.31,9.99,17.42,14.08c8.11,8.09,16.83,15.54,25.2,23.35c36.77,34.28,24.27,21.33,29.36,26.19
	c0.12,0.12,1.64,1.52,3.86,3.17c7.23,5.37,8.6,5.38,15.65-0.23c2.61-2.07,5.15-4.25,7.54-6.56c6.73-6.53,18.25-15.7,36.62-29.34
	c10.07-7.48,8.54-5.85,20.83-14.8c6.91-5.03,19.96-14.7,35.53-27.35c16.11-13.09,25.59-20.8,37.81-32.99
	c5.85-5.84,17.01-17.38,26.5-33.26c2.76-4.61,5.02-8.99,6.88-14.43c3.71-10.81,3.83-19.92,3.81-23.86c0-0.65,0-1.21,0-1.67
	c-0.09-12.11-0.12-27.11-0.12-39.52c0-10.82,0.02-19.48,0.04-22.19c0.06-11.32,0.63-33.66,0.67-52.94c0-0.1,0-0.19,0-0.29
	c0-0.26,0-0.53,0-0.79c-0.03-4.74-0.07-9.48-0.1-14.22c-0.07-3.73-0.18-7.14-0.34-10.04c-0.42-7.55-2.27-15.91-5.24-22.9
	c-6.76-15.89-18.4-24.65-22-27.3c-9.2-6.75-17.9-9.51-23.33-11.18c-21.78-6.7-45.52-6.68-65.18,6.07
	c-10.87,7.05-19.6,17.2-31.01,23.34c-19.52,10.51-47.71,5.24-58.01-14.38c-4.46-8.5-5.26-18.38-5.74-27.97
	c-0.48-9.83-0.71-19.67-0.68-29.51c0.05-10.09,0.37-20.17,0.96-30.24c2.08-35.61,8.28-72.79,30.22-100.91
	c2.43-3.12,5.48-6.33,9.43-6.59c4.79-0.31,8.59,3.78,11.59,7.52c14.72,18.32,53.37,43.74,81.11,54.61
	c17.61,6.91,29.09,7.33,31.94,7.4c18.2,0.43,36.62-5.5,45.44-14.12c13.84-13.53,27.55-30.41,35.15-48.29
	c4.02-9.45,5.88-17.9,7.41-24.83c0.95-4.32,1.67-7.56,2.16-11.98c0.49-4.39,0.68-8.41,0.66-11.94
	C719.26,219.72,718.7,215.08,717.88,212.41z"/>
</svg>
