<?xml version="1.0" encoding="utf-8"?>
<!-- Generator: Adobe Illustrator 24.0.2, SVG Export Plug-In . SVG Version: 6.00 Build 0)  -->
<svg version="1.1" id="图层_1" xmlns="http://www.w3.org/2000/svg" xmlns:xlink="http://www.w3.org/1999/xlink" x="0px" y="0px"
	 viewBox="0 0 1024 1024" style="enable-background:new 0 0 1024 1024;" xml:space="preserve">
<path d="M729.26,740.16c-1.33-1.01-2.77-1.87-4.2-2.72c-8.98-5.31-16.54-12.31-23.74-19.76c-7.8-8.08-11.42-17.42-11.34-28.85
	c0.28-42,0.12-84-0.05-126c-0.03-7.67,1.73-14.32,6.92-20.21c6.62-7.51,9.8-16.34,9.62-26.59c-0.17-9.7-3.24-18.43-8.06-26.46
	c-6.61-11.01-8.53-22.69-8.42-35.37c0.3-34.59-3.8-75.99,0.35-136c0.84-12.14,0.35-24.33,0.82-36.49c0.63-16.33,1.33-25.02-3-36
	c-3.35-8.49-8.38-14.99-10-17c-3.7-4.6-5.21-5.24-12.6-12.1c-7.72-7.17-21.72-21.01-31.87-27c-5.27-3.11-9.93-2.73-14.89,0.51
	c-7.87,5.15-14.27,11.97-21.27,18.13c-28.91,25.47-50.69,57.37-77.19,85c-3.49,3.64-2.76,6.38,0.95,8.95
	c2.46,1.71,5.04,3.25,7.56,4.88c14.87,9.66,28.47,20.84,40.94,33.47c7.94,8.04,11.66,17.07,11.39,28.64
	c-0.61,26.32-0.68,52.67-0.12,78.99c0.37,17.33-1.51,33.81-10.02,49.26c-1.05,1.91-4.14,7.35-5.07,15.08
	c-0.33,2.76-1.15,10.24,2.07,18.43c2.61,6.62,5.37,7.38,9.72,17.44c1.72,3.98,2.64,6.99,2.84,7.63c2.11,6.98,2.53,12.71,2.72,16.09
	c0.58,10.46-0.01,18.12-0.37,26.32c-0.78,17.54,0.45,15.73-0.37,28.54c-0.98,15.27-1.47,22.91-5.13,31.29
	c-1.46,3.34-2.38,7.46-19.19,23.32c-11.28,10.65-22.56,21.3-33.85,31.95c-7.6,7.18-17.21,14.92-27.34,12.29
	c-4.86-1.26-8.78-4.77-12.46-8.2c-6.43-6.01-12.75-12.15-18.93-18.42c-5.24-5.31-10.52-10.9-13.27-17.83
	c-2.72-6.84-2.75-14.41-2.75-21.77c0-0.01,0-0.91,0-2.7c0.01-25.26,0.41-37.89,0.03-48.89c-0.2-5.8-0.54-11.72-0.02-17.52
	c0.61-6.8-0.19-15.21,2.6-21.52c1.78-4,4.19-6.07,7.25-9.1c1.99-1.97,9.16-9.79,14.43-17c6.01-8.22,9.09-18.5,8.74-28.67
	c-0.27-8.05-3.59-13.03-7.99-19.57c-3.86-5.72-8.43-10.81-12.42-16.37c-5.81-8.1-7.18-21.71-8.92-31.37
	c-6.2-34.19-5.06-68.77-3.57-103.35c0.98-22.55,2.1-45.11,1.45-67.56c-0.43-15.03-1.7-30.21-6.4-44.5s-13.11-27.74-25.54-36.21
	c-5.54-3.78-12.19-6.57-18.82-5.63c-7.47,1.06-13.44,6.54-18.87,11.79c-30.55,29.56-60.19,60.07-88.85,91.46
	c-0.56,0.61-1.15,1.28-1.27,2.1c-0.26,1.7,1.46,2.97,2.95,3.83c17.27,9.96,33.13,22.37,46.96,36.73
	c5.25,5.45,10.31,11.34,13.05,18.4c2.99,7.71,3,16.21,2.96,24.48c-0.07,17.14-0.14,34.28-0.22,51.42
	c-0.05,12.74-0.19,25.89-5.24,37.58c-4.24,9.8-11.61,17.83-17.81,26.52c-6.2,8.69-11.46,18.92-10.4,29.55
	c1.23,12.43,10.25,20.82,17.7,29.92c6.15,7.5,14.96,14.13,15.89,24.57c0.5,5.69,0.01,11.81-0.08,17.53
	c-0.73,45.99-0.39,91.99-0.61,137.99c-0.06,12.47,3.16,23.55,11.19,33.32c9.72,11.85,19.32,23.79,28.91,35.74
	c8,9.96,15.19,21.69,25.83,29.07c4.02,2.79,8.08,3.11,11.93-0.11c4.6-3.84,9.28-7.63,13.49-11.88
	c24.45-24.67,40.85-56.29,67.88-78.57c3.49-2.88,10.07-8.82,18.56-8.46c4.97,0.21,8.99,2.46,11.17,3.71
	c7.16,4.11,10.28,10.06,14.95,16.26c6.58,8.74,14.81,16.65,22.09,24.83c14.4,16.19,28.81,32.39,43.21,48.58
	c4.89,5.49,10.82,11.45,18.16,11.12c4.99-0.23,8.16-4.01,17.66-14.1c14.55-15.46,29.09-30.92,43.6-46.43
	c6.72-7.19,13.01-16.4,20.95-22.21c3.21-2.35,7.16-4.86,7.18-8.16C733.44,744.4,732.21,742.41,729.26,740.16z"/>
</svg>
