<?xml version="1.0" encoding="utf-8"?>
<!-- Generator: Adobe Illustrator 24.0.2, SVG Export Plug-In . SVG Version: 6.00 Build 0)  -->
<svg version="1.1" id="图层_1" xmlns="http://www.w3.org/2000/svg" xmlns:xlink="http://www.w3.org/1999/xlink" x="0px" y="0px"
	 viewBox="0 0 1024 1024" style="enable-background:new 0 0 1024 1024;" xml:space="preserve">
<path d="M655.93,177.48c14.2-10.94,16.28-31.03,22.32-47.9c1.08-3.03,2.23-6.05,2.9-9.09c0.28-1.24,0.74-6.35-1.4-12.89
	c-0.79-2.42-2.67-7.23-12.36-17.69c-5.67-6.13-9.8-10.58-16.68-15.57c-5.73-4.15-12.95-9.27-23.25-11.03
	c-13.69-2.34-20.85,6.92-27.75,17.27c-5.82,8.74-12.84,16.6-18.5,25.45c-12.07,18.85-18.11,28.28-20.6,32.64
	c-10.48,18.35-17.06,33.19-23.32,47.42c-4.41,10.01-9.52,22.31-14.82,36.58c-9.23-12.38-17.52-22.89-24.32-31.26
	c-4.17-5.14-9.12-11.03-19.03-22.81c-13.34-15.88-22.65-26.75-25.23-29.76c-11.52-13.45-17.27-20.17-18.31-21.18
	c-16.67-16.24-32.97-23.82-42.85-28.31c-10.77-4.89-19.04-7.25-28.02-7.91c-5.72-0.42-17.77-1.31-20.35,4.02
	c-1.58,3.26,1.11,7.4,7.78,17.24c9.99,14.71,14.98,22.07,17.24,25.02c2.71,3.54,9.41,14.22,22.8,35.58
	c14.35,22.89,21.57,34.44,23.91,40.03c2.82,6.73,8.24,21.07,10.66,40.09c1.58,12.45,1.03,21.84,1.06,26.97
	c0.3,51.33,0.46,102.65,0.65,153.98c0.01,3.33-0.18,6.67-0.14,10c0.11,8.12-2.56,14.95-8.74,20.41
	c-6.41,5.65-10.94,10.42-11.62,10.98c-15.25,12.68-18.22,13.41-18,16.12c0.35,4.34,8.05,4.17,19.01,12.79
	c1.67,1.31,9.21,7.1,13.81,15.5c4.31,7.86,5.99,16.85,5.91,27.47c-0.77,95.32-0.53,190.65-0.63,285.97c-0.02,15,0.16,30-0.06,44.99
	c-0.12,8.47,2.61,15.7,8.18,21.89c3.79,4.21,7.77,8.24,11.75,12.27c16.4,16.58,33.75,32.19,49.12,49.83
	c9.06,10.4,10.54,10.01,20.03-0.46c24.19-26.68,49.48-52.24,77.18-75.33c9.99-8.33,9.82-12.3-2.03-17.43
	c-15.44-6.69-28.71-16.81-42.99-25.33c-8.45-5.04-11.96-11.86-11.92-22.2c0.12-28.74,0.09-57.49,0.12-86.23
	c0.03-34.06,0.05-68.11,0.07-102.17c0.01-17.49,0.03-34.98,0.05-52.47c0.02-15.05-2.6-32.64,1.94-47.15
	c3.79-12.11,13.28-20.99,21.31-30.35c6.99-8.16,17.08-18.59,19.32-29.38c2.15-10.35-2.51-18.88-5.01-23.44
	c-1.51-2.76-5.9-10.83-14.73-16.26c-5.1-3.14-10.15-6.37-15.15-9.66c-5.44-3.58-7.74-8.54-7.7-15.21c0.2-32.42,0.46-64.83,0.3-97.25
	c-0.08-16.93-1.94-34.63-0.7-51.41c1.18-15.97,9.51-31.63,17.25-45.29c9.83-17.37,20.96-34,33.26-49.72
	c4.69-5.99,27.43-35.82,35.02-25.89c6.77,8.85,8.86,19.94,11.3,30.54c1.61,6.97,2.55,18.74,11.31,20.43
	C649.05,181.67,652.88,179.83,655.93,177.48z"/>
</svg>
